<svg width="24" height="24" viewBox="0 0 24 24" fill="none" xmlns="http://www.w3.org/2000/svg">
<path d="M5.00006 9.99999C4.9996 9.76634 5.08098 9.5399 5.23006 9.35999C5.31401 9.25873 5.41711 9.17503 5.53346 9.11368C5.6498 9.05233 5.77711 9.01453 5.90809 9.00245C6.03906 8.99038 6.17114 9.00426 6.29674 9.0433C6.42234 9.08235 6.53901 9.14579 6.64006 9.22999L12.0001 13.71L17.3701 9.38999C17.4723 9.30692 17.59 9.24489 17.7164 9.20746C17.8427 9.17003 17.9752 9.15794 18.1062 9.17187C18.2373 9.18581 18.3643 9.22551 18.4799 9.28868C18.5955 9.35186 18.6975 9.43726 18.7801 9.53999C18.8711 9.64346 18.9398 9.76462 18.9818 9.89588C19.0237 10.0271 19.0381 10.1657 19.0241 10.3028C19.01 10.4399 18.9677 10.5726 18.8999 10.6925C18.8321 10.8125 18.7402 10.9172 18.6301 11L12.6301 15.83C12.4511 15.9771 12.2267 16.0575 11.9951 16.0575C11.7634 16.0575 11.539 15.9771 11.3601 15.83L5.36006 10.83C5.23904 10.7297 5.14338 10.6022 5.08083 10.458C5.01828 10.3138 4.99061 10.1569 5.00006 9.99999Z" fill="white"/>
</svg>
